<?xml version="1.0" encoding="utf-8"?>
<!-- Generator: Adobe Illustrator 21.0.0, SVG Export Plug-In . SVG Version: 6.00 Build 0)  -->
<svg version="1.1" id="Layer_1" xmlns="http://www.w3.org/2000/svg" xmlns:xlink="http://www.w3.org/1999/xlink" x="0px" y="0px"
	 width="529.5px" height="50.4px" viewBox="0 0 529.5 50.4" style="enable-background:new 0 0 529.5 50.4;" xml:space="preserve">
<style type="text/css">
	.st0{fill:#F16462;}
</style>
<g>
	<path class="st0" d="M0,25.2c0-3.5,0.7-6.7,2-9.8c1.3-3.1,3.1-5.7,5.4-8c2.3-2.3,5-4.1,8-5.4c3.1-1.3,6.3-2,9.8-2s6.7,0.7,9.8,2
		c3.1,1.3,5.7,3.1,8,5.4c2.3,2.3,4.1,5,5.4,8c1.3,3.1,2,6.3,2,9.8s-0.7,6.7-2,9.8c-1.3,3.1-3.1,5.7-5.4,8c-2.3,2.3-5,4.1-8,5.4
		c-3.1,1.3-6.3,2-9.8,2s-6.7-0.7-9.8-2c-3.1-1.3-5.7-3.1-8-5.4c-2.3-2.3-4.1-5-5.4-8C0.7,31.9,0,28.7,0,25.2z M15.1,25.2
		c0,1.4,0.3,2.7,0.8,3.9c0.5,1.2,1.2,2.3,2.2,3.2c0.9,0.9,2,1.6,3.2,2.2c1.2,0.5,2.5,0.8,3.9,0.8c1.4,0,2.7-0.3,3.9-0.8
		c1.2-0.5,2.3-1.2,3.2-2.2c0.9-0.9,1.6-2,2.2-3.2c0.5-1.2,0.8-2.5,0.8-3.9c0-1.4-0.3-2.7-0.8-3.9c-0.5-1.2-1.2-2.3-2.2-3.2
		c-0.9-0.9-2-1.6-3.2-2.2c-1.2-0.5-2.5-0.8-3.9-0.8c-1.4,0-2.7,0.3-3.9,0.8c-1.2,0.5-2.3,1.2-3.2,2.2c-0.9,0.9-1.6,2-2.2,3.2
		C15.4,22.5,15.1,23.8,15.1,25.2z"/>
	<path class="st0" d="M54.4,1.2H67l13.2,18.5V1.2h15v48H82.6L69.4,30.7v18.4h-15V1.2z"/>
	<path class="st0" d="M100.3,1.2h16v35.4h13.2v12.6h-29.2V1.2z"/>
	<path class="st0" d="M132,1.2h16.3v48H132V1.2z"/>
	<path class="st0" d="M153.4,1.2H166l13.2,18.5V1.2h15v48h-12.7l-13.2-18.4v18.4h-15V1.2z"/>
	<path class="st0" d="M199.3,1.2h28.3v12.6h-13v5.3h12.7v12h-12.7v5.5h13.5v12.6h-28.8V1.2z"/>
	<path class="st0" d="M261.1,1.2h11.5l18.2,48h-15.1l-1.6-4.3h-14.5l-1.6,4.3h-15.1L261.1,1.2z M270.1,34.3l-3.2-8.4l-3.2,8.4H270.1
		z"/>
	<path class="st0" d="M311.5,50.4c-3,0-5.8-0.4-8.2-1.2c-2.4-0.8-4.5-1.9-6.3-3.5c-1.7-1.5-3.1-3.5-4-5.8c-0.9-2.4-1.4-5.1-1.4-8.3
		V1.2H307V31c0,1.7,0.3,3,1,3.9c0.7,0.9,1.9,1.3,3.5,1.3s2.8-0.4,3.5-1.3c0.7-0.9,1-2.2,1-3.9V1.2h15.4v30.5c0,3.2-0.5,5.9-1.4,8.3
		c-0.9,2.4-2.3,4.3-4,5.8c-1.8,1.5-3.9,2.7-6.3,3.5C317.3,50,314.6,50.4,311.5,50.4z"/>
	<path class="st0" d="M335.2,25.2c0-3.8,0.7-7.3,2-10.4c1.3-3.1,3.2-5.7,5.5-8c2.3-2.2,5-3.9,8.1-5.1c3.1-1.2,6.3-1.8,9.8-1.8
		c2.7,0,5.2,0.3,7.3,0.8c2.1,0.5,4,1.1,5.5,1.8c1.8,0.8,3.3,1.6,4.6,2.5l-7.6,13.3c-0.8-0.6-1.6-1.1-2.5-1.7
		c-0.8-0.4-1.8-0.8-2.9-1.1c-1.1-0.4-2.4-0.5-3.9-0.5c-1.5,0-2.9,0.3-4.1,0.8c-1.2,0.5-2.3,1.2-3.3,2.2c-0.9,0.9-1.7,2-2.2,3.2
		c-0.5,1.2-0.8,2.5-0.8,3.9c0,1.4,0.3,2.7,0.8,3.9c0.6,1.2,1.3,2.3,2.3,3.2c1,0.9,2.1,1.6,3.4,2.2c1.3,0.5,2.7,0.8,4.2,0.8
		s2.9-0.2,4.1-0.6c1.2-0.4,2.2-0.8,3-1.3c1-0.5,1.8-1.2,2.5-1.9l7.6,13.3c-1.3,1.1-2.8,2-4.6,2.8c-1.5,0.7-3.4,1.3-5.5,1.9
		c-2.2,0.6-4.6,0.9-7.4,0.9c-3.7,0-7.2-0.6-10.4-1.8c-3.2-1.2-5.9-2.9-8.2-5.1c-2.3-2.2-4.1-4.9-5.4-8
		C335.9,32.4,335.2,28.9,335.2,25.2z"/>
	<path class="st0" d="M386.8,13.8H378V1.2h33.6v12.6h-8.9v35.4h-15.8V13.8z"/>
	<path class="st0" d="M414.1,1.2h16.3v48h-16.3V1.2z"/>
	<path class="st0" d="M434.3,25.2c0-3.5,0.7-6.7,2-9.8c1.3-3.1,3.1-5.7,5.4-8c2.3-2.3,5-4.1,8-5.4c3.1-1.3,6.3-2,9.8-2
		s6.7,0.7,9.8,2c3.1,1.3,5.7,3.1,8,5.4c2.3,2.3,4.1,5,5.4,8c1.3,3.1,2,6.3,2,9.8s-0.7,6.7-2,9.8c-1.3,3.1-3.1,5.7-5.4,8
		c-2.3,2.3-5,4.1-8,5.4c-3.1,1.3-6.3,2-9.8,2s-6.7-0.7-9.8-2c-3.1-1.3-5.7-3.1-8-5.4c-2.3-2.3-4.1-5-5.4-8
		C435,31.9,434.3,28.7,434.3,25.2z M449.4,25.2c0,1.4,0.3,2.7,0.8,3.9c0.5,1.2,1.2,2.3,2.2,3.2c0.9,0.9,2,1.6,3.2,2.2
		c1.2,0.5,2.5,0.8,3.9,0.8c1.4,0,2.7-0.3,3.9-0.8c1.2-0.5,2.3-1.2,3.2-2.2c0.9-0.9,1.6-2,2.2-3.2c0.5-1.2,0.8-2.5,0.8-3.9
		c0-1.4-0.3-2.7-0.8-3.9s-1.2-2.3-2.2-3.2c-0.9-0.9-2-1.6-3.2-2.2c-1.2-0.5-2.5-0.8-3.9-0.8c-1.4,0-2.7,0.3-3.9,0.8
		c-1.2,0.5-2.3,1.2-3.2,2.2c-0.9,0.9-1.6,2-2.2,3.2S449.4,23.8,449.4,25.2z"/>
	<path class="st0" d="M488.7,1.2h12.6l13.2,18.5V1.2h15v48h-12.7l-13.2-18.4v18.4h-15V1.2z"/>
</g>
</svg>
