<svg id="Layer_1" data-name="Layer 1" xmlns="http://www.w3.org/2000/svg" width="3.24in" height="0.31in" viewBox="0 0 233.44 22.4">
  <defs>
    <style>
      .cls-1 {
        fill: #f16462;
      }
    </style>
  </defs>
  <title>online-auction</title>
  <g>
    <path class="cls-1" d="M0,11.2A10.9,10.9,0,0,1,.88,6.85a11.19,11.19,0,0,1,6-6A10.91,10.91,0,0,1,11.2,0a10.91,10.91,0,0,1,4.35.88,11.2,11.2,0,0,1,6,6,10.91,10.91,0,0,1,.88,4.35,10.91,10.91,0,0,1-.88,4.35,11.2,11.2,0,0,1-6,6,10.91,10.91,0,0,1-4.35.88,10.91,10.91,0,0,1-4.35-.88,11.19,11.19,0,0,1-6-6A10.9,10.9,0,0,1,0,11.2Zm6.72,0a4.35,4.35,0,0,0,.35,1.74,4.49,4.49,0,0,0,2.38,2.38,4.5,4.5,0,0,0,3.49,0,4.49,4.49,0,0,0,2.38-2.38,4.5,4.5,0,0,0,0-3.49,4.49,4.49,0,0,0-2.38-2.38,4.5,4.5,0,0,0-3.49,0A4.49,4.49,0,0,0,7.07,9.46,4.35,4.35,0,0,0,6.72,11.2Z"/>
    <path class="cls-1" d="M23.52.51h5.6L35,8.74V.51H41.7V21.86H36.06l-5.86-8.19v8.19H23.52Z"/>
    <path class="cls-1" d="M43.3.51h7.1V16.26h5.89v5.6h-13Z"/>
    <path class="cls-1" d="M57.41.51h7.23V21.86H57.41Z"/>
    <path class="cls-1" d="M66.24.51h5.6l5.89,8.22V.51h6.69V21.86H78.78l-5.86-8.19v8.19H66.24Z"/>
    <path class="cls-1" d="M86,.51H98.59v5.6H92.83V8.48h5.66v5.31H92.83v2.46h6v5.6H86Z"/>
    <path class="cls-1" d="M116,.51h5.12l8.1,21.34h-6.72l-.7-1.92h-6.46l-.7,1.92h-6.72Zm4,14.72-1.44-3.74-1.44,3.74Z"/>
    <path class="cls-1" d="M137.18,22.4a12.17,12.17,0,0,1-3.65-.51,7.51,7.51,0,0,1-2.78-1.54A6.73,6.73,0,0,1,129,17.76a9.92,9.92,0,0,1-.62-3.68V.51h6.82V13.79a2.72,2.72,0,0,0,.46,1.71,2.33,2.33,0,0,0,3.1,0,2.73,2.73,0,0,0,.46-1.71V.51H146V14.08a9.92,9.92,0,0,1-.62,3.68,6.65,6.65,0,0,1-1.79,2.59,7.66,7.66,0,0,1-2.8,1.54A12.17,12.17,0,0,1,137.18,22.4Z"/>
    <path class="cls-1" d="M147.07,11.2a11.49,11.49,0,0,1,.9-4.62A10.78,10.78,0,0,1,150.4,3,10.61,10.61,0,0,1,154,.78,12.06,12.06,0,0,1,158.33,0a13.61,13.61,0,0,1,3.25.35,15.42,15.42,0,0,1,2.45.8,11.55,11.55,0,0,1,2,1.12l-3.36,5.92a11.43,11.43,0,0,0-1.12-.74,10.88,10.88,0,0,0-1.3-.5,5.62,5.62,0,0,0-1.71-.24,4.64,4.64,0,0,0-1.82.35,4.7,4.7,0,0,0-1.46,1,4.4,4.4,0,0,0-1,1.42A4.34,4.34,0,0,0,154,11.2a4.19,4.19,0,0,0,.37,1.74,4.49,4.49,0,0,0,1,1.42,4.79,4.79,0,0,0,1.5,1,5,5,0,0,0,1.89.35,6,6,0,0,0,1.82-.26,6.69,6.69,0,0,0,1.34-.58A5,5,0,0,0,163,14l3.36,5.92a9.53,9.53,0,0,1-2,1.25,17.41,17.41,0,0,1-2.46.83,12.84,12.84,0,0,1-3.3.38,12.68,12.68,0,0,1-4.61-.82,10.85,10.85,0,0,1-3.65-2.29,10.38,10.38,0,0,1-2.4-3.54A11.69,11.69,0,0,1,147.07,11.2Z"/>
    <path class="cls-1" d="M171.29,6.11h-3.94V.51h14.91v5.6h-3.94V21.86h-7Z"/>
    <path class="cls-1" d="M183.39.51h7.23V21.86h-7.23Z"/>
    <path class="cls-1" d="M191.74,11.2a10.9,10.9,0,0,1,.88-4.35,11.19,11.19,0,0,1,6-6,11.2,11.2,0,0,1,8.7,0,11.2,11.2,0,0,1,6,6,10.92,10.92,0,0,1,.88,4.35,10.92,10.92,0,0,1-.88,4.35,11.2,11.2,0,0,1-6,6,11.2,11.2,0,0,1-8.7,0,11.19,11.19,0,0,1-6-6A10.9,10.9,0,0,1,191.74,11.2Zm6.72,0a4.34,4.34,0,0,0,.35,1.74,4.49,4.49,0,0,0,2.38,2.38,4.5,4.5,0,0,0,3.49,0,4.49,4.49,0,0,0,2.38-2.38,4.49,4.49,0,0,0,0-3.49,4.49,4.49,0,0,0-2.38-2.38,4.5,4.5,0,0,0-3.49,0,4.49,4.49,0,0,0-2.38,2.38A4.34,4.34,0,0,0,198.46,11.2Z"/>
    <path class="cls-1" d="M215.26.51h5.6l5.89,8.22V.51h6.69V21.86H227.8l-5.86-8.19v8.19h-6.69Z"/>
  </g>
</svg>
