<svg id="Layer_1" data-name="Layer 1" xmlns="http://www.w3.org/2000/svg" width="3.07in" height="0.31in" viewBox="0 0 221.25 22.4">
  <defs>
    <style>
      .cls-1 {
        fill: #fff;
      }
    </style>
  </defs>
  <title>place-your-bid</title>
  <g>
    <path class="cls-1" d="M16.61,8.64a8.41,8.41,0,0,1-.77,3.76,6.71,6.71,0,0,1-2.1,2.51,9,9,0,0,1-3.1,1.41,15.57,15.57,0,0,1-3.82.45v5.09H0V.51H6.82A15.61,15.61,0,0,1,10.64,1a9,9,0,0,1,3.1,1.41,6.71,6.71,0,0,1,2.1,2.51A8.41,8.41,0,0,1,16.61,8.64ZM6.82,11H7.1A2.57,2.57,0,0,0,9,10.38a2.43,2.43,0,0,0,.59-1.74A2.43,2.43,0,0,0,9,6.9,2.57,2.57,0,0,0,7.1,6.27H6.82Z"/>
    <path class="cls-1" d="M17.57.51h7.1V16.26h5.89v5.6h-13Z"/>
    <path class="cls-1" d="M39.78.51H44.9L53,21.86H46.27l-.7-1.92H39.1l-.7,1.92H31.68Zm4,14.72-1.44-3.74L40.9,15.23Z"/>
    <path class="cls-1" d="M50.91,11.2a11.49,11.49,0,0,1,.9-4.62A10.77,10.77,0,0,1,54.24,3,10.61,10.61,0,0,1,57.82.78,12.06,12.06,0,0,1,62.17,0a13.6,13.6,0,0,1,3.25.35,15.42,15.42,0,0,1,2.45.8,11.54,11.54,0,0,1,2,1.12L66.56,8.19a11.43,11.43,0,0,0-1.12-.74,10.84,10.84,0,0,0-1.3-.5,5.62,5.62,0,0,0-1.71-.24,4.64,4.64,0,0,0-1.82.35,4.69,4.69,0,0,0-1.46,1,4.41,4.41,0,0,0-1,1.42,4.35,4.35,0,0,0-.35,1.74,4.19,4.19,0,0,0,.37,1.74,4.48,4.48,0,0,0,1,1.42,4.77,4.77,0,0,0,1.5,1,5,5,0,0,0,1.89.35,6,6,0,0,0,1.82-.26,6.68,6.68,0,0,0,1.34-.58A4.94,4.94,0,0,0,66.88,14l3.36,5.92a9.52,9.52,0,0,1-2,1.25,17.43,17.43,0,0,1-2.46.83,12.84,12.84,0,0,1-3.3.38,12.68,12.68,0,0,1-4.61-.82,10.87,10.87,0,0,1-3.65-2.29,10.39,10.39,0,0,1-2.4-3.54A11.7,11.7,0,0,1,50.91,11.2Z"/>
    <path class="cls-1" d="M71.68.51H84.25v5.6H78.5V8.48h5.66v5.31H78.5v2.46h6v5.6H71.68Z"/>
    <path class="cls-1" d="M97.66,12.67,91,.51h7.58L101.09,5,103.52.51h7.58l-6.62,12.16v9.18H97.66Z"/>
    <path class="cls-1" d="M108.22,11.2a10.9,10.9,0,0,1,.88-4.35,11.19,11.19,0,0,1,6-6,11.2,11.2,0,0,1,8.7,0,11.2,11.2,0,0,1,6,6,10.92,10.92,0,0,1,.88,4.35,10.92,10.92,0,0,1-.88,4.35,11.2,11.2,0,0,1-6,6,11.2,11.2,0,0,1-8.7,0,11.19,11.19,0,0,1-6-6A10.9,10.9,0,0,1,108.22,11.2Zm6.72,0a4.34,4.34,0,0,0,.35,1.74,4.49,4.49,0,0,0,2.38,2.38,4.5,4.5,0,0,0,3.49,0,4.49,4.49,0,0,0,2.38-2.38,4.49,4.49,0,0,0,0-3.49,4.49,4.49,0,0,0-2.38-2.38,4.5,4.5,0,0,0-3.49,0,4.49,4.49,0,0,0-2.38,2.38A4.34,4.34,0,0,0,114.94,11.2Z"/>
    <path class="cls-1" d="M140.48,22.4a12.17,12.17,0,0,1-3.65-.51A7.51,7.51,0,0,1,134,20.35a6.73,6.73,0,0,1-1.78-2.59,9.92,9.92,0,0,1-.62-3.68V.51h6.82V13.79a2.72,2.72,0,0,0,.46,1.71,2.33,2.33,0,0,0,3.1,0,2.73,2.73,0,0,0,.46-1.71V.51h6.85V14.08a9.92,9.92,0,0,1-.62,3.68,6.65,6.65,0,0,1-1.79,2.59,7.66,7.66,0,0,1-2.8,1.54A12.17,12.17,0,0,1,140.48,22.4Z"/>
    <path class="cls-1" d="M150.85.51h7.36a12.68,12.68,0,0,1,3.79.54,8.83,8.83,0,0,1,3,1.6,7.32,7.32,0,0,1,2,2.61,8.38,8.38,0,0,1,.72,3.57,7.35,7.35,0,0,1-.45,2.72,8.37,8.37,0,0,1-1,1.86,6.9,6.9,0,0,1-1.44,1.41l4,7h-8l-3.2-5.41v5.41h-6.82ZM157.66,11H158a3.74,3.74,0,0,0,2.06-.54,2,2,0,0,0,.85-1.82,2,2,0,0,0-.85-1.82A3.75,3.75,0,0,0,158,6.27h-.35Z"/>
    <path class="cls-1" d="M175.9.51h8.35a11,11,0,0,1,2.93.37A6.62,6.62,0,0,1,189.45,2a5,5,0,0,1,1.47,1.79,5.62,5.62,0,0,1,.53,2.51A5.22,5.22,0,0,1,191.2,8a6.72,6.72,0,0,1-.54,1.2,4,4,0,0,1-.8,1,5.43,5.43,0,0,1,1.28,1.15,6.89,6.89,0,0,1,.88,1.54,5.76,5.76,0,0,1,.4,2.27,6.9,6.9,0,0,1-.54,2.78A5.94,5.94,0,0,1,190.32,20a6.85,6.85,0,0,1-2.46,1.34,10.66,10.66,0,0,1-3.25.46h-8.7Zm9,6.5q0-1.47-1.6-1.47h-.77V8.48h.77Q184.86,8.48,184.86,7Zm-1.6,9.82q2.43,0,2.43-1.86t-2.43-1.86h-.77v3.71Z"/>
    <path class="cls-1" d="M193.85.51h7.23V21.86h-7.23Z"/>
    <path class="cls-1" d="M202.69,21.86V.51h5.92a19.53,19.53,0,0,1,5.36.67,10.73,10.73,0,0,1,4,2,8.69,8.69,0,0,1,2.46,3.34,11.76,11.76,0,0,1,.85,4.62,11.76,11.76,0,0,1-.85,4.62,8.69,8.69,0,0,1-2.46,3.34,10.91,10.91,0,0,1-4,2,19.1,19.1,0,0,1-5.36.69Zm6.82-6.08a5.5,5.5,0,0,0,3.71-1.14,4.35,4.35,0,0,0,1.31-3.47,4.3,4.3,0,0,0-1.31-3.46,5.55,5.55,0,0,0-3.71-1.12Z"/>
  </g>
</svg>
