<?xml version="1.0" encoding="utf-8"?>
<!-- Generator: Adobe Illustrator 21.0.0, SVG Export Plug-In . SVG Version: 6.00 Build 0)  -->
<svg version="1.1" id="Layer_1" xmlns="http://www.w3.org/2000/svg" xmlns:xlink="http://www.w3.org/1999/xlink" x="0px" y="0px"
	 width="134.9px" height="187.7px" viewBox="0 0 134.9 187.7" style="enable-background:new 0 0 134.9 187.7;" xml:space="preserve"
	>
<style type="text/css">
	.st0{clip-path:url(#SVGID_2_);}
	.st1{clip-path:url(#SVGID_4_);fill:#F16462;}
</style>
<g id="Artwork_1">
	<g>
		<defs>
			<rect id="SVGID_1_" x="0" y="0" width="134.9" height="187.7"/>
		</defs>
		<clipPath id="SVGID_2_">
			<use xlink:href="#SVGID_1_"  style="overflow:visible;"/>
		</clipPath>
		<g class="st0">
			<defs>
				<rect id="SVGID_3_" x="0" y="0" width="134.9" height="187.7"/>
			</defs>
			<clipPath id="SVGID_4_">
				<use xlink:href="#SVGID_3_"  style="overflow:visible;"/>
			</clipPath>
			<path class="st1" d="M24.4,51.6h19.4c2.5,0,4.9,1.2,6.4,3.3l30.6,42.8V59.5c0-4.4,3.5-7.9,7.9-7.9h21.7c4.4,0,7.9,3.5,7.9,7.9
				v103.8c0,4.4-3.5,7.9-7.9,7.9H90.9c-2.6,0-4.9-1.2-6.4-3.3L54,125.3v38c0,4.4-3.5,7.9-7.9,7.9H24.4c-4.4,0-7.9-3.5-7.9-7.9V59.5
				C16.5,55.1,20.1,51.6,24.4,51.6"/>
			<path class="st1" d="M16.6,29.5c0.4,0.1,0.8,0.2,1.3,0.3c0.4,0.1,0.8,0.2,1.2,0.2c0.5,0.1,0.9,0.1,1.4,0.1c0.8,0,1.3-0.3,1.3-0.9
				c0-0.2-0.1-0.5-0.4-0.7c-0.3-0.2-0.6-0.5-1-0.8c-0.4-0.3-0.8-0.6-1.3-1c-0.4-0.4-0.9-0.8-1.3-1.3s-0.7-1-1-1.6
				c-0.3-0.6-0.4-1.3-0.4-2c0-0.9,0.2-1.6,0.5-2.3c0.3-0.7,0.7-1.2,1.3-1.6c0.5-0.4,1.2-0.8,1.9-1c0.7-0.2,1.5-0.3,2.4-0.3
				c0.4,0,0.9,0,1.3,0.1c0.4,0,0.8,0.1,1.2,0.1c0.4,0.1,0.8,0.1,1.2,0.2V22c-0.1,0-0.3,0-0.5-0.1c-0.1,0-0.3,0-0.5-0.1
				c-0.2,0-0.4,0-0.6,0c-0.1,0-0.2,0-0.4,0c-0.2,0-0.3,0-0.5,0.1c-0.1,0-0.3,0.1-0.4,0.2c-0.1,0.1-0.2,0.2-0.2,0.4
				c0,0.1,0.1,0.3,0.4,0.5c0.2,0.2,0.5,0.5,0.9,0.8c0.4,0.3,0.7,0.6,1.2,1c0.4,0.4,0.8,0.8,1.2,1.3c0.4,0.5,0.7,1.1,0.9,1.7
				c0.2,0.6,0.4,1.3,0.4,2.1c0,0.8-0.1,1.6-0.4,2.3c-0.3,0.7-0.7,1.3-1.2,1.8c-0.5,0.5-1.2,0.9-2.1,1.2c-0.8,0.3-1.8,0.5-3,0.5
				c-0.7,0-1.3,0-1.9-0.1c-0.6-0.1-1.1-0.1-1.6-0.2c-0.5-0.1-1-0.2-1.4-0.3V29.5z"/>
			<polygon class="st1" points="34.4,21.7 31,21.7 31,16.9 43.8,16.9 43.8,21.7 40.4,21.7 40.4,35.2 34.4,35.2 			"/>
			<path class="st1" d="M56,35.7c-1.1,0-2.2-0.1-3.1-0.4c-0.9-0.3-1.7-0.7-2.4-1.3c-0.7-0.6-1.2-1.3-1.5-2.2
				c-0.4-0.9-0.5-1.9-0.5-3.1V16.9h5.8v11.4c0,0.6,0.1,1.1,0.4,1.5c0.3,0.3,0.7,0.5,1.3,0.5c0.6,0,1.1-0.2,1.3-0.5
				c0.3-0.3,0.4-0.8,0.4-1.5V16.9h5.9v11.6c0,1.2-0.2,2.3-0.5,3.1c-0.4,0.9-0.9,1.6-1.5,2.2c-0.7,0.6-1.5,1-2.4,1.3
				C58.2,35.5,57.2,35.7,56,35.7"/>
			<path class="st1" d="M68.7,35.2V16.9h5.1c1.7,0,3.2,0.2,4.6,0.6c1.3,0.4,2.5,1,3.4,1.7c0.9,0.8,1.6,1.7,2.1,2.9
				c0.5,1.1,0.7,2.5,0.7,4c0,1.5-0.2,2.8-0.7,4c-0.5,1.1-1.2,2.1-2.1,2.9c-0.9,0.8-2.1,1.3-3.4,1.7c-1.3,0.4-2.9,0.6-4.6,0.6H68.7z
				 M74.6,30c1.4,0,2.4-0.3,3.2-1c0.7-0.6,1.1-1.6,1.1-3c0-1.3-0.4-2.3-1.1-3c-0.7-0.6-1.8-1-3.2-1V30z"/>
			<rect x="88.8" y="16.9" class="st1" width="6.2" height="18.3"/>
			<path class="st1" d="M99.3,26.1c0-1.3,0.3-2.6,0.8-3.7c0.5-1.2,1.2-2.2,2.1-3.1c0.9-0.9,1.9-1.6,3.1-2.1c1.2-0.5,2.4-0.8,3.7-0.8
				c1.3,0,2.6,0.3,3.7,0.8c1.2,0.5,2.2,1.2,3.1,2.1c0.9,0.9,1.6,1.9,2.1,3.1c0.5,1.2,0.8,2.4,0.8,3.7c0,1.3-0.2,2.6-0.8,3.7
				c-0.5,1.2-1.2,2.2-2.1,3.1c-0.9,0.9-1.9,1.6-3.1,2.1c-1.2,0.5-2.4,0.8-3.7,0.8c-1.3,0-2.6-0.3-3.7-0.8c-1.2-0.5-2.2-1.2-3.1-2.1
				c-0.9-0.9-1.6-1.9-2.1-3.1C99.5,28.6,99.3,27.4,99.3,26.1 M105,26.1c0,0.5,0.1,1,0.3,1.5c0.2,0.5,0.5,0.9,0.8,1.2
				c0.3,0.3,0.8,0.6,1.2,0.8c0.5,0.2,1,0.3,1.5,0.3c0.5,0,1-0.1,1.5-0.3c0.5-0.2,0.9-0.5,1.2-0.8c0.3-0.3,0.6-0.8,0.8-1.2
				c0.2-0.5,0.3-1,0.3-1.5c0-0.5-0.1-1-0.3-1.5c-0.2-0.5-0.5-0.9-0.8-1.2c-0.3-0.3-0.8-0.6-1.2-0.8c-0.5-0.2-1-0.3-1.5-0.3
				c-0.5,0-1,0.1-1.5,0.3c-0.5,0.2-0.9,0.5-1.2,0.8c-0.3,0.3-0.6,0.8-0.8,1.2C105.1,25.1,105,25.5,105,26.1"/>
		</g>
	</g>
</g>
</svg>
